<?xml version="1.0" encoding="us-ascii" standalone="no"?><svg xmlns="http://www.w3.org/2000/svg" xmlns:xlink="http://www.w3.org/1999/xlink" contentStyleType="text/css" height="522px" preserveAspectRatio="none" style="width:668px;height:522px;background:#FFFFFF;" version="1.1" viewBox="0 0 668 522" width="668px" zoomAndPan="magnify"><defs/><g><!--class Utilisateur--><g id="elem_Utilisateur"><rect codeLine="1" fill="#F1F1F1" height="129.4844" id="Utilisateur" rx="2.5" ry="2.5" style="stroke:#181818;stroke-width:0.5;" width="193" x="214.5" y="7"/><ellipse cx="272.75" cy="23" fill="#ADD1B2" rx="11" ry="11" style="stroke:#181818;stroke-width:1.0;"/><path d="M276.8594,29 L269.1406,29 L269.1406,16.6094 L276.8594,16.6094 L276.8594,18.7656 L271.5938,18.7656 L271.5938,21.4375 L276.3594,21.4375 L276.3594,23.5938 L271.5938,23.5938 L271.5938,26.8438 L276.8594,26.8438 L276.8594,29 Z " fill="#000000"/><text fill="#000000" font-family="sans-serif" font-size="14" lengthAdjust="spacing" textLength="68" x="293.25" y="27.8467">Utilisateur</text><line style="stroke:#181818;stroke-width:0.5;" x1="215.5" x2="406.5" y1="39" y2="39"/><text fill="#000000" font-family="sans-serif" font-size="14" lengthAdjust="spacing" textLength="69" x="220.5" y="55.9951">PK id : INT</text><line style="stroke:#181818;stroke-width:1.0;" x1="215.5" x2="406.5" y1="63.2969" y2="63.2969"/><ellipse cx="225.5" cy="76.9453" fill="#000000" rx="3" ry="3" style="stroke:#000000;stroke-width:1.0;"/><text fill="#000000" font-family="sans-serif" font-size="14" lengthAdjust="spacing" textLength="116" x="234.5" y="80.292">email : VARCHAR</text><ellipse cx="225.5" cy="93.2422" fill="#000000" rx="3" ry="3" style="stroke:#000000;stroke-width:1.0;"/><text fill="#000000" font-family="sans-serif" font-size="14" lengthAdjust="spacing" textLength="134" x="234.5" y="96.5889">prenom : VARCHAR</text><ellipse cx="225.5" cy="109.5391" fill="#000000" rx="3" ry="3" style="stroke:#000000;stroke-width:1.0;"/><text fill="#000000" font-family="sans-serif" font-size="14" lengthAdjust="spacing" textLength="111" x="234.5" y="112.8857">nom : VARCHAR</text><ellipse cx="225.5" cy="125.8359" fill="#000000" rx="3" ry="3" style="stroke:#000000;stroke-width:1.0;"/><text fill="#000000" font-family="sans-serif" font-size="14" lengthAdjust="spacing" textLength="167" x="234.5" y="129.1826">motdepasse : VARCHAR</text></g><!--class Message--><g id="elem_Message"><rect codeLine="10" fill="#F1F1F1" height="129.4844" id="Message" rx="2.5" ry="2.5" style="stroke:#181818;stroke-width:0.5;" width="132" x="7" y="196.48"/><ellipse cx="38.65" cy="212.48" fill="#ADD1B2" rx="11" ry="11" style="stroke:#181818;stroke-width:1.0;"/><path d="M42.7594,218.48 L35.0406,218.48 L35.0406,206.0894 L42.7594,206.0894 L42.7594,208.2456 L37.4938,208.2456 L37.4938,210.9175 L42.2594,210.9175 L42.2594,213.0737 L37.4938,213.0737 L37.4938,216.3237 L42.7594,216.3237 L42.7594,218.48 Z " fill="#000000"/><text fill="#000000" font-family="sans-serif" font-size="14" lengthAdjust="spacing" textLength="63" x="56.35" y="217.3267">Message</text><line style="stroke:#181818;stroke-width:0.5;" x1="8" x2="138" y1="228.48" y2="228.48"/><text fill="#000000" font-family="sans-serif" font-size="14" lengthAdjust="spacing" textLength="69" x="13" y="245.4751">PK id : INT</text><text fill="#000000" font-family="sans-serif" font-size="14" lengthAdjust="spacing" textLength="120" x="13" y="261.772">FK envoyeur : INT</text><text fill="#000000" font-family="sans-serif" font-size="14" lengthAdjust="spacing" textLength="117" x="13" y="278.0689">FK receveur : INT</text><line style="stroke:#181818;stroke-width:1.0;" x1="8" x2="138" y1="285.3706" y2="285.3706"/><ellipse cx="18" cy="299.0191" fill="#000000" rx="3" ry="3" style="stroke:#000000;stroke-width:1.0;"/><text fill="#000000" font-family="sans-serif" font-size="14" lengthAdjust="spacing" textLength="82" x="27" y="302.3657">date : DATE</text><ellipse cx="18" cy="315.3159" fill="#000000" rx="3" ry="3" style="stroke:#000000;stroke-width:1.0;"/><text fill="#000000" font-family="sans-serif" font-size="14" lengthAdjust="spacing" textLength="106" x="27" y="318.6626">text : VARCHAR</text></g><!--class Publication--><g id="elem_Publication"><rect codeLine="19" fill="#F1F1F1" height="113.1875" id="Publication" rx="2.5" ry="2.5" style="stroke:#181818;stroke-width:0.5;" width="132" x="245" y="204.63"/><ellipse cx="271.25" cy="220.63" fill="#ADD1B2" rx="11" ry="11" style="stroke:#181818;stroke-width:1.0;"/><path d="M275.3594,226.63 L267.6406,226.63 L267.6406,214.2394 L275.3594,214.2394 L275.3594,216.3956 L270.0938,216.3956 L270.0938,219.0675 L274.8594,219.0675 L274.8594,221.2238 L270.0938,221.2238 L270.0938,224.4738 L275.3594,224.4738 L275.3594,226.63 Z " fill="#000000"/><text fill="#000000" font-family="sans-serif" font-size="14" lengthAdjust="spacing" textLength="75" x="287.75" y="225.4767">Publication</text><line style="stroke:#181818;stroke-width:0.5;" x1="246" x2="376" y1="236.63" y2="236.63"/><text fill="#000000" font-family="sans-serif" font-size="14" lengthAdjust="spacing" textLength="69" x="251" y="253.6251">PK id : INT</text><text fill="#000000" font-family="sans-serif" font-size="14" lengthAdjust="spacing" textLength="112" x="251" y="269.922">FK publieur : INT</text><line style="stroke:#181818;stroke-width:1.0;" x1="246" x2="376" y1="277.2238" y2="277.2238"/><ellipse cx="256" cy="290.8722" fill="#000000" rx="3" ry="3" style="stroke:#000000;stroke-width:1.0;"/><text fill="#000000" font-family="sans-serif" font-size="14" lengthAdjust="spacing" textLength="106" x="265" y="294.2189">text : VARCHAR</text><ellipse cx="256" cy="307.1691" fill="#000000" rx="3" ry="3" style="stroke:#000000;stroke-width:1.0;"/><text fill="#000000" font-family="sans-serif" font-size="14" lengthAdjust="spacing" textLength="102" x="265" y="310.5157">son: VARCHAR</text></g><!--class Commentaire--><g id="elem_Commentaire"><rect codeLine="27" fill="#F1F1F1" height="129.4844" id="Commentaire" rx="2.5" ry="2.5" style="stroke:#181818;stroke-width:0.5;" width="143" x="144.5" y="385.97"/><ellipse cx="167.6" cy="401.97" fill="#ADD1B2" rx="11" ry="11" style="stroke:#181818;stroke-width:1.0;"/><path d="M171.7094,407.97 L163.9906,407.97 L163.9906,395.5794 L171.7094,395.5794 L171.7094,397.7356 L166.4438,397.7356 L166.4438,400.4075 L171.2094,400.4075 L171.2094,402.5637 L166.4438,402.5637 L166.4438,405.8137 L171.7094,405.8137 L171.7094,407.97 Z " fill="#000000"/><text fill="#000000" font-family="sans-serif" font-size="14" lengthAdjust="spacing" textLength="93" x="183.4" y="406.8167">Commentaire</text><line style="stroke:#181818;stroke-width:0.5;" x1="145.5" x2="286.5" y1="417.97" y2="417.97"/><text fill="#000000" font-family="sans-serif" font-size="14" lengthAdjust="spacing" textLength="69" x="150.5" y="434.9651">PK id : INT</text><text fill="#000000" font-family="sans-serif" font-size="14" lengthAdjust="spacing" textLength="131" x="150.5" y="451.262">FK publication : INT</text><text fill="#000000" font-family="sans-serif" font-size="14" lengthAdjust="spacing" textLength="123" x="150.5" y="467.5589">FK utilisateur : INT</text><line style="stroke:#181818;stroke-width:1.0;" x1="145.5" x2="286.5" y1="474.8606" y2="474.8606"/><ellipse cx="155.5" cy="488.5091" fill="#000000" rx="3" ry="3" style="stroke:#000000;stroke-width:1.0;"/><text fill="#000000" font-family="sans-serif" font-size="14" lengthAdjust="spacing" textLength="106" x="164.5" y="491.8557">text : VARCHAR</text><ellipse cx="155.5" cy="504.8059" fill="#000000" rx="3" ry="3" style="stroke:#000000;stroke-width:1.0;"/><text fill="#000000" font-family="sans-serif" font-size="14" lengthAdjust="spacing" textLength="82" x="164.5" y="508.1526">date : DATE</text></g><!--class Like--><g id="elem_Like"><rect codeLine="36" fill="#F1F1F1" height="80.5938" id="Like" rx="2.5" ry="2.5" style="stroke:#181818;stroke-width:0.5;" width="165" x="334.5" y="410.41"/><ellipse cx="399.25" cy="426.41" fill="#ADD1B2" rx="11" ry="11" style="stroke:#181818;stroke-width:1.0;"/><path d="M403.3594,432.41 L395.6406,432.41 L395.6406,420.0194 L403.3594,420.0194 L403.3594,422.1756 L398.0938,422.1756 L398.0938,424.8475 L402.8594,424.8475 L402.8594,427.0037 L398.0938,427.0037 L398.0938,430.2537 L403.3594,430.2537 L403.3594,432.41 Z " fill="#000000"/><text fill="#000000" font-family="sans-serif" font-size="14" lengthAdjust="spacing" textLength="27" x="419.75" y="431.2567">Like</text><line style="stroke:#181818;stroke-width:0.5;" x1="335.5" x2="498.5" y1="442.41" y2="442.41"/><text fill="#000000" font-family="sans-serif" font-size="14" lengthAdjust="spacing" textLength="153" x="340.5" y="459.4051">PK,FK publication : INT</text><text fill="#000000" font-family="sans-serif" font-size="14" lengthAdjust="spacing" textLength="145" x="340.5" y="475.702">PK,FK utilisateur : INT</text><line style="stroke:#181818;stroke-width:0.5;" x1="335.5" x2="498.5" y1="483.0037" y2="483.0037"/></g><!--class Abonnement--><g id="elem_Abonnement"><rect codeLine="41" fill="#F1F1F1" height="80.5938" id="Abonnement" rx="2.5" ry="2.5" style="stroke:#181818;stroke-width:0.5;" width="179" x="482.5" y="220.93"/><ellipse cx="523.15" cy="236.93" fill="#ADD1B2" rx="11" ry="11" style="stroke:#181818;stroke-width:1.0;"/><path d="M527.2594,242.93 L519.5406,242.93 L519.5406,230.5394 L527.2594,230.5394 L527.2594,232.6956 L521.9938,232.6956 L521.9938,235.3675 L526.7594,235.3675 L526.7594,237.5238 L521.9938,237.5238 L521.9938,240.7738 L527.2594,240.7738 L527.2594,242.93 Z " fill="#000000"/><text fill="#000000" font-family="sans-serif" font-size="14" lengthAdjust="spacing" textLength="90" x="542.85" y="241.7767">Abonnement</text><line style="stroke:#181818;stroke-width:0.5;" x1="483.5" x2="660.5" y1="252.93" y2="252.93"/><text fill="#000000" font-family="sans-serif" font-size="14" lengthAdjust="spacing" textLength="131" x="488.5" y="269.9251">PK,FK abonn&#233; : INT</text><text fill="#000000" font-family="sans-serif" font-size="14" lengthAdjust="spacing" textLength="167" x="488.5" y="286.222">PK,FK abonnement : INT</text><line style="stroke:#181818;stroke-width:0.5;" x1="483.5" x2="660.5" y1="293.5238" y2="293.5238"/></g><!--link Utilisateur to Message--><g id="link_Utilisateur_Message"><path codeLine="46" d="M229.76,136.74 C200.27,159.97 172.0438,182.2078 143.9938,204.2978 " fill="none" id="Utilisateur-to-Message" style="stroke:#181818;stroke-width:1.0;"/><polygon fill="#181818" points="139.28,208.01,148.8254,205.5842,143.2081,204.9165,143.8759,199.2992,139.28,208.01" style="stroke:#181818;stroke-width:1.0;"/></g><!--link Utilisateur to Publication--><g id="link_Utilisateur_Publication"><path codeLine="47" d="M311,136.74 C311,158.69 311,177.08 311,198.35 " fill="none" id="Utilisateur-to-Publication" style="stroke:#181818;stroke-width:1.0;"/><polygon fill="#181818" points="311,204.35,315,195.35,311,199.35,307,195.35,311,204.35" style="stroke:#181818;stroke-width:1.0;"/></g><!--link Utilisateur to Commentaire--><g id="link_Utilisateur_Commentaire"><path codeLine="48" d="M258.61,136.67 C246.37,154.95 234.9,175.6 228,196.48 C207.57,258.33 206.4129,327.3095 209.3529,379.5595 " fill="none" id="Utilisateur-to-Commentaire" style="stroke:#181818;stroke-width:1.0;"/><polygon fill="#181818" points="209.69,385.55,213.1781,376.3395,209.4091,380.5579,205.1907,376.7889,209.69,385.55" style="stroke:#181818;stroke-width:1.0;"/></g><!--link Utilisateur to Like--><g id="link_Utilisateur_Like"><path codeLine="49" d="M362.79,136.87 C375.03,155.15 386.65,175.76 394,196.48 C419.59,268.67 421.2613,353.3234 419.5513,404.2534 " fill="none" id="Utilisateur-to-Like" style="stroke:#181818;stroke-width:1.0;"/><polygon fill="#181818" points="419.35,410.25,423.6498,401.3893,419.5178,405.2528,415.6543,401.1208,419.35,410.25" style="stroke:#181818;stroke-width:1.0;"/></g><!--link Utilisateur to Abonnement--><g id="link_Utilisateur_Abonnement"><path codeLine="50" d="M400.09,136.74 C438.78,164.53 478.0172,192.7091 511.8672,217.0291 " fill="none" id="Utilisateur-to-Abonnement" style="stroke:#181818;stroke-width:1.0;"/><polygon fill="#181818" points="516.74,220.53,511.7648,212.0302,512.6794,217.6126,507.0969,218.5272,516.74,220.53" style="stroke:#181818;stroke-width:1.0;"/></g><!--link Publication to Commentaire--><g id="link_Publication_Commentaire"><path codeLine="51" d="M282.63,318.22 C271.85,339.48 262.2225,358.4882 251.1025,380.4282 " fill="none" id="Publication-to-Commentaire" style="stroke:#181818;stroke-width:1.0;"/><polygon fill="#181818" points="248.39,385.78,256.0267,379.5606,250.6504,381.3201,248.8909,375.9439,248.39,385.78" style="stroke:#181818;stroke-width:1.0;"/></g><!--link Publication to Like--><g id="link_Publication_Like"><path codeLine="52" d="M342.66,318.22 C359.38,347.79 376.537,378.137 391.627,404.827 " fill="none" id="Publication-to-Like" style="stroke:#181818;stroke-width:1.0;"/><polygon fill="#181818" points="394.58,410.05,393.6325,400.2468,392.1192,405.6975,386.6685,404.1841,394.58,410.05" style="stroke:#181818;stroke-width:1.0;"/></g><!--SRC=[ZP9DQiCm44RtFiMiItI1BWecIMb96q98krVYeGor96F98I7aG3r7BnOfFzKWAT2DiTw8xyruZDgHsyE7evQiT3ZqSAW05ZEW1XxXTRxo9o64Vpu0Aacjfv_rSlnIBy-iwr4RbS2SAECQxAIro0h7giAB_nsjbLzOS3_F0FNMx4DdZFMumIrdjnuRFuI7aterFPyTxbnHkHZMBMsa8wFBsYvSA2cIo82iqIN7s2ZbNoNrU5znxO7XWMtZ7t8-SdI_qVTLEhfZkbHoMSoerqPh32F491dOxq-I8lzknX3-KmdnT5jonjaciXhxWbajJ9Z1s7B5DvncfRMGTG80]--></g></svg>